<mxfile host="app.diagrams.net" modified="2023-10-16T16:04:13.039Z" agent="Mozilla/5.0 (Windows NT 10.0; Win64; x64) AppleWebKit/537.36 (KHTML, like Gecko) Chrome/116.0.0.0 Safari/537.36 OPR/102.0.0.0" etag="okSoHQwLKW-5hk1X3KJs" version="22.0.4" type="github">
  <diagram id="R2lEEEUBdFMjLlhIrx00" name="Page-1">
    <mxGraphModel dx="2020" dy="783" grid="1" gridSize="10" guides="1" tooltips="1" connect="1" arrows="1" fold="1" page="1" pageScale="1" pageWidth="850" pageHeight="1100" math="0" shadow="0" extFonts="Permanent Marker^https://fonts.googleapis.com/css?family=Permanent+Marker">
      <root>
        <mxCell id="0" />
        <mxCell id="1" parent="0" />
        <mxCell id="D6ePaIDt9NHAW9fcFI0R-1" value="Receta" style="swimlane;childLayout=stackLayout;horizontal=1;startSize=50;horizontalStack=0;rounded=1;fontSize=14;fontStyle=0;strokeWidth=2;resizeParent=0;resizeLast=1;shadow=0;dashed=0;align=center;arcSize=4;whiteSpace=wrap;html=1;" parent="1" vertex="1">
          <mxGeometry x="480" y="130" width="110" height="170" as="geometry" />
        </mxCell>
        <mxCell id="D6ePaIDt9NHAW9fcFI0R-2" value="&lt;font style=&quot;font-size: 14px;&quot;&gt;&lt;b&gt;+id_receta: int&lt;/b&gt;&lt;/font&gt;&lt;br&gt;+imagen&lt;br&gt;+nombre&lt;br&gt;+dificultad&lt;br&gt;+tiempo&lt;br&gt;+comensales&lt;br&gt;+instrucciones" style="align=left;strokeColor=none;fillColor=none;spacingLeft=4;fontSize=12;verticalAlign=top;resizable=0;rotatable=0;part=1;html=1;" parent="D6ePaIDt9NHAW9fcFI0R-1" vertex="1">
          <mxGeometry y="50" width="110" height="120" as="geometry" />
        </mxCell>
        <mxCell id="D6ePaIDt9NHAW9fcFI0R-3" value="Ingredientes" style="swimlane;childLayout=stackLayout;horizontal=1;startSize=50;horizontalStack=0;rounded=1;fontSize=14;fontStyle=0;strokeWidth=2;resizeParent=0;resizeLast=1;shadow=0;dashed=0;align=center;arcSize=4;whiteSpace=wrap;html=1;" parent="1" vertex="1">
          <mxGeometry x="50" y="133" width="140" height="120" as="geometry" />
        </mxCell>
        <mxCell id="D6ePaIDt9NHAW9fcFI0R-4" value="&lt;font style=&quot;font-size: 14px;&quot;&gt;&lt;b&gt;+id_ingrediente: int&lt;/b&gt;&lt;/font&gt;&lt;br&gt;+nombre&lt;br&gt;+tipo_de_medida" style="align=left;strokeColor=none;fillColor=none;spacingLeft=4;fontSize=12;verticalAlign=top;resizable=0;rotatable=0;part=1;html=1;" parent="D6ePaIDt9NHAW9fcFI0R-3" vertex="1">
          <mxGeometry y="50" width="140" height="70" as="geometry" />
        </mxCell>
        <mxCell id="D6ePaIDt9NHAW9fcFI0R-10" value="Usar" style="shape=rhombus;perimeter=rhombusPerimeter;whiteSpace=wrap;html=1;align=center;" parent="1" vertex="1">
          <mxGeometry x="270" y="180" width="120" height="60" as="geometry" />
        </mxCell>
        <mxCell id="D6ePaIDt9NHAW9fcFI0R-11" value="Cantidad" style="ellipse;whiteSpace=wrap;html=1;align=center;" parent="1" vertex="1">
          <mxGeometry x="280" y="90" width="100" height="40" as="geometry" />
        </mxCell>
        <mxCell id="D6ePaIDt9NHAW9fcFI0R-12" value="" style="endArrow=none;html=1;rounded=0;exitX=0.5;exitY=0;exitDx=0;exitDy=0;entryX=0.5;entryY=1;entryDx=0;entryDy=0;" parent="1" source="D6ePaIDt9NHAW9fcFI0R-10" target="D6ePaIDt9NHAW9fcFI0R-11" edge="1">
          <mxGeometry relative="1" as="geometry">
            <mxPoint x="340" y="300" as="sourcePoint" />
            <mxPoint x="500" y="300" as="targetPoint" />
            <Array as="points" />
          </mxGeometry>
        </mxCell>
        <mxCell id="D6ePaIDt9NHAW9fcFI0R-14" value="" style="edgeStyle=entityRelationEdgeStyle;fontSize=12;html=1;endArrow=ERoneToMany;rounded=0;exitX=0;exitY=0.5;exitDx=0;exitDy=0;entryX=0.986;entryY=0.386;entryDx=0;entryDy=0;entryPerimeter=0;" parent="1" source="D6ePaIDt9NHAW9fcFI0R-10" target="D6ePaIDt9NHAW9fcFI0R-4" edge="1">
          <mxGeometry width="100" height="100" relative="1" as="geometry">
            <mxPoint x="350" y="270" as="sourcePoint" />
            <mxPoint x="260" y="270" as="targetPoint" />
            <Array as="points">
              <mxPoint x="80" y="260" />
              <mxPoint x="90" y="310" />
              <mxPoint x="40" y="290" />
            </Array>
          </mxGeometry>
        </mxCell>
        <mxCell id="D6ePaIDt9NHAW9fcFI0R-17" value="" style="edgeStyle=entityRelationEdgeStyle;fontSize=12;html=1;endArrow=ERoneToMany;rounded=0;exitX=1;exitY=0.5;exitDx=0;exitDy=0;" parent="1" source="D6ePaIDt9NHAW9fcFI0R-10" edge="1">
          <mxGeometry width="100" height="100" relative="1" as="geometry">
            <mxPoint x="250" y="300" as="sourcePoint" />
            <mxPoint x="480" y="210" as="targetPoint" />
            <Array as="points">
              <mxPoint x="130" y="220" />
              <mxPoint x="170" y="240" />
              <mxPoint x="140" y="270" />
              <mxPoint x="90" y="250" />
            </Array>
          </mxGeometry>
        </mxCell>
        <mxCell id="D6ePaIDt9NHAW9fcFI0R-18" value="Utensilios" style="swimlane;childLayout=stackLayout;horizontal=1;startSize=50;horizontalStack=0;rounded=1;fontSize=14;fontStyle=0;strokeWidth=2;resizeParent=0;resizeLast=1;shadow=0;dashed=0;align=center;arcSize=4;whiteSpace=wrap;html=1;" parent="1" vertex="1">
          <mxGeometry x="860" y="143" width="130" height="120" as="geometry" />
        </mxCell>
        <mxCell id="D6ePaIDt9NHAW9fcFI0R-19" value="&lt;font style=&quot;font-size: 14px;&quot;&gt;&lt;b&gt;+id_utensilio: int&lt;/b&gt;&lt;/font&gt;&lt;br&gt;+nombre&lt;br&gt;+descripciÃ³n" style="align=left;strokeColor=none;fillColor=none;spacingLeft=4;fontSize=12;verticalAlign=top;resizable=0;rotatable=0;part=1;html=1;" parent="D6ePaIDt9NHAW9fcFI0R-18" vertex="1">
          <mxGeometry y="50" width="130" height="70" as="geometry" />
        </mxCell>
        <mxCell id="D6ePaIDt9NHAW9fcFI0R-21" value="Utilizar" style="shape=rhombus;perimeter=rhombusPerimeter;whiteSpace=wrap;html=1;align=center;" parent="1" vertex="1">
          <mxGeometry x="660" y="180" width="120" height="60" as="geometry" />
        </mxCell>
        <mxCell id="D6ePaIDt9NHAW9fcFI0R-23" value="" style="edgeStyle=entityRelationEdgeStyle;fontSize=12;html=1;endArrow=ERoneToMany;rounded=0;exitX=0;exitY=0.5;exitDx=0;exitDy=0;entryX=1;entryY=0.25;entryDx=0;entryDy=0;" parent="1" source="D6ePaIDt9NHAW9fcFI0R-21" target="D6ePaIDt9NHAW9fcFI0R-2" edge="1">
          <mxGeometry width="100" height="100" relative="1" as="geometry">
            <mxPoint x="700" y="240.5" as="sourcePoint" />
            <mxPoint x="620" y="240" as="targetPoint" />
            <Array as="points">
              <mxPoint x="190" y="360" />
              <mxPoint x="200" y="410" />
              <mxPoint x="150" y="390" />
            </Array>
          </mxGeometry>
        </mxCell>
        <mxCell id="D6ePaIDt9NHAW9fcFI0R-24" value="" style="edgeStyle=entityRelationEdgeStyle;fontSize=12;html=1;endArrow=ERoneToMany;rounded=0;exitX=1;exitY=0.5;exitDx=0;exitDy=0;entryX=0;entryY=0.25;entryDx=0;entryDy=0;" parent="1" source="D6ePaIDt9NHAW9fcFI0R-21" target="D6ePaIDt9NHAW9fcFI0R-19" edge="1">
          <mxGeometry width="100" height="100" relative="1" as="geometry">
            <mxPoint x="685" y="290" as="sourcePoint" />
            <mxPoint x="755" y="290" as="targetPoint" />
            <Array as="points">
              <mxPoint x="305" y="340" />
              <mxPoint x="345" y="360" />
              <mxPoint x="315" y="390" />
              <mxPoint x="265" y="370" />
            </Array>
          </mxGeometry>
        </mxCell>
        <mxCell id="pzV4GVHWULwkiyjhijvR-1" value="&lt;ul&gt;&lt;li&gt;&lt;font size=&quot;3&quot;&gt;Receta: &lt;u style=&quot;font-weight: bold;&quot;&gt;id_receta: int,&lt;/u&gt;&amp;nbsp;imagen, nombre, dificultad, tiempo, comensales, instrucciones&lt;/font&gt;&lt;/li&gt;&lt;li&gt;&lt;font size=&quot;3&quot;&gt;Ingredientes: &lt;u style=&quot;font-weight: bold;&quot;&gt;id_ingredientes: int,&lt;/u&gt;&amp;nbsp;nombre, tipo_de_medida&lt;/font&gt;&lt;/li&gt;&lt;li&gt;&lt;font size=&quot;3&quot;&gt;Usar: &lt;u style=&quot;font-weight: bold;&quot;&gt;id_receta: int, id_ingredientes: int,&lt;/u&gt;&amp;nbsp;cantidad&lt;/font&gt;&lt;/li&gt;&lt;li&gt;&lt;font size=&quot;3&quot;&gt;Utensilios: &lt;u style=&quot;font-weight: bold;&quot;&gt;id_utensilio: int,&lt;/u&gt;&amp;nbsp;nombre, descripcion&lt;/font&gt;&lt;/li&gt;&lt;li&gt;&lt;font size=&quot;3&quot;&gt;Utilizar: &lt;b&gt;&lt;u&gt;id_receta: int, id_utensilio: int&lt;/u&gt;&lt;/b&gt;&lt;/font&gt;&lt;/li&gt;&lt;/ul&gt;" style="text;strokeColor=none;fillColor=none;html=1;whiteSpace=wrap;verticalAlign=middle;overflow=hidden;" vertex="1" parent="1">
          <mxGeometry x="160" y="330" width="690" height="190" as="geometry" />
        </mxCell>
      </root>
    </mxGraphModel>
  </diagram>
</mxfile>
